<svg width="701" height="540" viewBox="0 0 701 540" fill="none" xmlns="http://www.w3.org/2000/svg">
<g opacity="0.07">
<path fill-rule="evenodd" clip-rule="evenodd" d="M351.969 556.041C526.692 556.041 668.334 414.4 668.334 239.676C668.334 64.9525 526.692 -76.6889 351.969 -76.6889C177.245 -76.6889 35.6038 64.9525 35.6038 239.676C35.6038 414.4 177.245 556.041 351.969 556.041ZM351.969 588.593C544.67 588.593 700.886 432.378 700.886 239.676C700.886 46.9745 544.67 -109.241 351.969 -109.241C159.267 -109.241 3.05176 46.9745 3.05176 239.676C3.05176 432.378 159.267 588.593 351.969 588.593Z" fill="#EA4879"/>
<path fill-rule="evenodd" clip-rule="evenodd" d="M0 -144.845L9.15526 -154L350.16 311.029L571.695 -6.70042L585.936 -1.41238L599.161 29.1051V477.713L566.609 496.023V57.509L370.126 339.308L599.161 685.232L595.092 693.37L293.441 278.956L0 -144.845ZM102.742 64.0168L462.727 552.489L436.522 571.8L135.294 163.057V496.023L102.742 474.661V64.0168Z" fill="#EA4879"/>
</g>
</svg>
