<svg width="11" height="20" viewBox="0 0 11 20" fill="none" xmlns="http://www.w3.org/2000/svg">
<path d="M3.84778 19.8512H2.74977L2.76451 11.2749H0.536384C0.246823 11.2749 0.0118039 11.0408 0.0106884 10.7512L3.94285e-06 7.98675C-0.00111156 7.69561 0.234611 7.45901 0.525757 7.45901H2.74983V4.78781C2.74983 1.68792 4.64307 0 7.4084 0H9.67756C9.96788 0 10.2033 0.235369 10.2033 0.525749V2.85678C10.2033 3.14704 9.96806 3.38235 9.67785 3.38253L8.2853 3.38317C6.78143 3.38317 6.49022 4.09779 6.49022 5.14653V7.45906H9.79475C10.1096 7.45906 10.3539 7.734 10.3168 8.04669L9.98914 10.8112C9.95779 11.0757 9.73345 11.275 9.46708 11.275H6.50496L6.49022 19.8512H5.34781C5.34072 19.8512 3.84778 19.8512 3.84778 19.8512Z" fill="white"/>
</svg>
