<svg width="24" height="25" viewBox="0 0 24 25" fill="none" xmlns="http://www.w3.org/2000/svg">
<path d="M23.5236 12.7755C23.5236 11.9598 23.4574 11.1397 23.3163 10.3372H11.9976V14.9581H18.4793C18.2103 16.4485 17.3461 17.7669 16.0806 18.6047V21.603H19.9476C22.2184 19.513 23.5236 16.4264 23.5236 12.7755Z" fill="#4285F4"/>
<path d="M11.9974 24.5C15.2339 24.5 17.9633 23.4373 19.9519 21.603L16.0849 18.6047C15.009 19.3366 13.6201 19.7511 12.0018 19.7511C8.87121 19.7511 6.21679 17.639 5.26437 14.7994H1.27393V17.8904C3.31104 21.9426 7.46022 24.5 11.9974 24.5Z" fill="#34A853"/>
<path d="M5.2601 14.7995C4.75743 13.3091 4.75743 11.6953 5.2601 10.205V7.11401H1.27406C-0.427942 10.5048 -0.427942 14.4996 1.27406 17.8904L5.2601 14.7995Z" fill="#FBBC04"/>
<path d="M11.9974 5.24881C13.7082 5.22235 15.3617 5.86611 16.6008 7.04781L20.0268 3.62176C17.8574 1.58465 14.9781 0.46468 11.9974 0.499954C7.46022 0.499954 3.31104 3.05737 1.27393 7.11395L5.25996 10.2049C6.20797 7.36088 8.8668 5.24881 11.9974 5.24881Z" fill="#EA4335"/>
</svg>
