<svg width="128" height="40" viewBox="0 0 128 40" fill="none" xmlns="http://www.w3.org/2000/svg">
<path d="M31.1826 29.3002L39.3997 9.22171H40.827L49.044 29.3002H47.9216C47.7923 29.3002 47.6815 29.2679 47.5891 29.2032C47.5059 29.1293 47.4413 29.0323 47.3951 28.9122L45.0394 23.0785H35.1734L32.8177 28.9122C32.7808 29.0139 32.7161 29.1062 32.6237 29.1894C32.5313 29.2633 32.4159 29.3002 32.2773 29.3002H31.1826ZM35.6029 22.0115H44.596L40.5083 11.8684C40.3697 11.5358 40.2357 11.1339 40.1064 10.6628C40.0417 10.8938 39.9725 11.1155 39.8986 11.3279C39.8339 11.5312 39.7692 11.7159 39.7046 11.8822L35.6029 22.0115Z" fill="white"/>
<path d="M52.3697 29.3002V9.22171H53.8246V18.4919H55.0302C55.2057 18.4919 55.3581 18.4873 55.4875 18.4781C55.626 18.4596 55.7461 18.4319 55.8477 18.3949C55.9586 18.3487 56.0602 18.2933 56.1526 18.2286C56.245 18.1547 56.342 18.067 56.4436 17.9654L64.5498 9.63741C64.6884 9.48037 64.827 9.37413 64.9655 9.31871C65.1041 9.25404 65.2658 9.22171 65.4505 9.22171H66.6145L57.8431 18.2286C57.6676 18.4134 57.5106 18.5612 57.372 18.6721C57.2334 18.7737 57.081 18.8568 56.9147 18.9215C57.118 18.9769 57.2981 19.0647 57.4551 19.1848C57.6122 19.3049 57.7692 19.4619 57.9263 19.6559L67.1688 29.3002H65.9909C65.7415 29.3002 65.5614 29.2725 65.4505 29.2171C65.3489 29.1524 65.2473 29.0508 65.1457 28.9122L56.6514 20.2379C56.5498 20.1363 56.4528 20.0485 56.3604 19.9746C56.2773 19.8915 56.1803 19.8268 56.0695 19.7806C55.9586 19.7252 55.8293 19.6882 55.6815 19.6697C55.5337 19.642 55.3489 19.6282 55.1272 19.6282H53.8246V29.3002H52.3697Z" fill="white"/>
<path d="M68.6792 26.903L69.081 26.2794C69.1919 26.1409 69.3212 26.0716 69.469 26.0716C69.5521 26.0716 69.6584 26.127 69.7877 26.2379C69.9263 26.3487 70.0879 26.4873 70.2727 26.6536C70.4667 26.8199 70.6976 27 70.9655 27.194C71.2334 27.388 71.5383 27.5681 71.8801 27.7344C72.2311 27.9007 72.633 28.0393 73.0856 28.1501C73.5475 28.261 74.0648 28.3164 74.6376 28.3164C75.432 28.3164 76.1387 28.1963 76.7577 27.9561C77.3858 27.7159 77.917 27.388 78.3512 26.9723C78.7854 26.5566 79.1133 26.0624 79.335 25.4896C79.566 24.9169 79.6815 24.3025 79.6815 23.6467C79.6815 22.9353 79.5337 22.3533 79.238 21.9007C78.9517 21.4388 78.5729 21.0554 78.1018 20.7506C77.6307 20.4457 77.0949 20.1917 76.4944 19.9885C75.8939 19.776 75.275 19.5727 74.6376 19.3788C74.0094 19.1755 73.3951 18.9492 72.7946 18.6998C72.1942 18.4503 71.6537 18.1363 71.1734 17.7575C70.7022 17.3788 70.3235 16.903 70.0371 16.3303C69.7507 15.7575 69.6076 15.037 69.6076 14.1686C69.6076 13.4942 69.7323 12.8476 69.9817 12.2286C70.2404 11.6097 70.6145 11.06 71.1041 10.5797C71.5937 10.0993 72.1988 9.71594 72.9193 9.42956C73.6491 9.14319 74.4805 9 75.4136 9C76.4574 9 77.3905 9.16628 78.2126 9.49885C79.0348 9.82217 79.7877 10.3256 80.4713 11.0092L80.1387 11.6605C80.0556 11.8176 79.9309 11.9007 79.7646 11.9099C79.6445 11.9099 79.4875 11.8222 79.2935 11.6467C79.0995 11.4711 78.8362 11.2771 78.5036 11.0647C78.1711 10.8522 77.7554 10.6582 77.2565 10.4827C76.7577 10.2979 76.148 10.2055 75.4274 10.2055C74.6976 10.2055 74.0556 10.3118 73.5013 10.5242C72.9471 10.7275 72.4805 11.0092 72.1018 11.3695C71.7323 11.7298 71.4505 12.1455 71.2565 12.6166C71.0625 13.0878 70.9655 13.582 70.9655 14.0993C70.9655 14.7829 71.1087 15.3464 71.3951 15.7898C71.6815 16.2333 72.0602 16.612 72.5313 16.9261C73.0117 17.2402 73.5521 17.5035 74.1526 17.7159C74.7531 17.9284 75.3674 18.1409 75.9956 18.3533C76.633 18.5566 77.2519 18.7829 77.8524 19.0323C78.4528 19.2818 78.9886 19.5958 79.4598 19.9746C79.9401 20.3533 80.3235 20.8199 80.6099 21.3741C80.8962 21.9284 81.0394 22.6166 81.0394 23.4388C81.0394 24.2794 80.8962 25.0739 80.6099 25.8222C80.3235 26.5612 79.9032 27.2079 79.3489 27.7621C78.8039 28.3072 78.1341 28.7367 77.3397 29.0508C76.5452 29.3649 75.6353 29.5219 74.6099 29.5219C73.2889 29.5219 72.148 29.291 71.1872 28.8291C70.2357 28.358 69.3997 27.7159 68.6792 26.903Z" fill="white"/>
<path d="M83.8662 26.903L84.2681 26.2794C84.3789 26.1409 84.5083 26.0716 84.6561 26.0716C84.7392 26.0716 84.8454 26.127 84.9748 26.2379C85.1133 26.3487 85.275 26.4873 85.4598 26.6536C85.6538 26.8199 85.8847 27 86.1526 27.194C86.4205 27.388 86.7253 27.5681 87.0671 27.7344C87.4182 27.9007 87.82 28.0393 88.2727 28.1501C88.7346 28.261 89.2519 28.3164 89.8247 28.3164C90.6191 28.3164 91.3258 28.1963 91.9447 27.9561C92.5729 27.7159 93.1041 27.388 93.5383 26.9723C93.9725 26.5566 94.3004 26.0624 94.5221 25.4896C94.7531 24.9169 94.8685 24.3025 94.8685 23.6467C94.8685 22.9353 94.7207 22.3533 94.4251 21.9007C94.1387 21.4388 93.76 21.0554 93.2889 20.7506C92.8177 20.4457 92.2819 20.1917 91.6815 19.9885C91.081 19.776 90.4621 19.5727 89.8247 19.3788C89.1965 19.1755 88.5822 18.9492 87.9817 18.6998C87.3812 18.4503 86.8408 18.1363 86.3605 17.7575C85.8893 17.3788 85.5106 16.903 85.2242 16.3303C84.9378 15.7575 84.7946 15.037 84.7946 14.1686C84.7946 13.4942 84.9193 12.8476 85.1688 12.2286C85.4274 11.6097 85.8016 11.06 86.2912 10.5797C86.7808 10.0993 87.3859 9.71594 88.1064 9.42956C88.8362 9.14319 89.6676 9 90.6006 9C91.6445 9 92.5775 9.16628 93.3997 9.49885C94.2219 9.82217 94.9748 10.3256 95.6584 11.0092L95.3258 11.6605C95.2427 11.8176 95.118 11.9007 94.9517 11.9099C94.8316 11.9099 94.6745 11.8222 94.4805 11.6467C94.2865 11.4711 94.0233 11.2771 93.6907 11.0647C93.3581 10.8522 92.9424 10.6582 92.4436 10.4827C91.9447 10.2979 91.335 10.2055 90.6145 10.2055C89.8847 10.2055 89.2427 10.3118 88.6884 10.5242C88.1341 10.7275 87.6676 11.0092 87.2889 11.3695C86.9193 11.7298 86.6376 12.1455 86.4436 12.6166C86.2496 13.0878 86.1526 13.582 86.1526 14.0993C86.1526 14.7829 86.2958 15.3464 86.5822 15.7898C86.8685 16.2333 87.2473 16.612 87.7184 16.9261C88.1988 17.2402 88.7392 17.5035 89.3397 17.7159C89.9401 17.9284 90.5544 18.1409 91.1826 18.3533C91.82 18.5566 92.439 18.7829 93.0394 19.0323C93.6399 19.2818 94.1757 19.5958 94.6468 19.9746C95.1272 20.3533 95.5106 20.8199 95.7969 21.3741C96.0833 21.9284 96.2265 22.6166 96.2265 23.4388C96.2265 24.2794 96.0833 25.0739 95.7969 25.8222C95.5106 26.5612 95.0902 27.2079 94.536 27.7621C93.9909 28.3072 93.3212 28.7367 92.5267 29.0508C91.7323 29.3649 90.8223 29.5219 89.7969 29.5219C88.4759 29.5219 87.335 29.291 86.3743 28.8291C85.4228 28.358 84.5868 27.7159 83.8662 26.903Z" fill="white"/>
<path d="M100.758 29.3002V9.22171H102.213V29.3002H100.758Z" fill="white"/>
<path d="M108.157 29.3002V9.22171H109.169C109.298 9.22171 109.4 9.23557 109.474 9.26328C109.548 9.29099 109.626 9.3649 109.709 9.48499L117.802 23.4527C117.94 23.7206 118.065 24.0069 118.176 24.3118C118.231 24.1732 118.291 24.0254 118.356 23.8684C118.42 23.7113 118.494 23.5681 118.578 23.4388L126.448 9.48499C126.522 9.3649 126.601 9.29099 126.684 9.26328C126.767 9.23557 126.873 9.22171 127.002 9.22171H128V29.3002H126.725V12.1871C126.725 12.0762 126.725 11.9561 126.725 11.8268C126.735 11.6882 126.744 11.5543 126.753 11.4249L118.869 25.4342C118.739 25.6836 118.55 25.8083 118.3 25.8083H118.079C117.829 25.8083 117.64 25.6836 117.511 25.4342L109.39 11.3972C109.418 11.6744 109.432 11.9376 109.432 12.1871V29.3002H108.157Z" fill="white"/>
<path fill-rule="evenodd" clip-rule="evenodd" d="M16.3021 32.8863C24.3946 32.8863 30.9549 26.326 30.9549 18.2335C30.9549 10.141 24.3946 3.58068 16.3021 3.58068C8.20957 3.58068 1.64929 10.141 1.64929 18.2335C1.64929 26.326 8.20957 32.8863 16.3021 32.8863ZM16.3021 34.394C25.2273 34.394 32.4626 27.1587 32.4626 18.2335C32.4626 9.3083 25.2273 2.073 16.3021 2.073C7.3769 2.073 0.141602 9.3083 0.141602 18.2335C0.141602 27.1587 7.3769 34.394 16.3021 34.394Z" fill="white"/>
<path fill-rule="evenodd" clip-rule="evenodd" d="M0 0.424036L0.424036 0L16.2181 21.5383L26.4787 6.82235L27.1383 7.06727L27.7508 8.48073V29.2585L26.2431 30.1066V9.79628L17.1428 22.8481L27.7508 38.87L27.5624 39.2469L13.5911 20.0529L0 0.424036ZM4.75863 10.0977L21.4317 32.7218L20.218 33.6163L6.26631 14.6849V30.1066L4.75863 29.1172V10.0977Z" fill="white"/>
</svg>
