<svg width="19" height="24" viewBox="0 0 19 24" fill="none" xmlns="http://www.w3.org/2000/svg">
<g clip-path="url(#clip0)">
<path d="M5.28401 21.2029L5.66437 18.7869L4.8171 18.7673H0.771282L3.58292 0.939663C3.59129 0.885192 3.61896 0.835542 3.66087 0.799764C3.70279 0.763987 3.75617 0.744464 3.81128 0.744754H10.6331C12.8978 0.744754 14.4607 1.21603 15.2767 2.14621C15.6593 2.58257 15.9029 3.03857 16.0207 3.54039C16.1444 4.06694 16.1466 4.69603 16.0258 5.4633L16.0171 5.5193V6.01094L16.3996 6.22766C16.6917 6.37562 16.9542 6.57577 17.1742 6.81821C17.5015 7.1913 17.7131 7.66548 17.8026 8.22767C17.8949 8.80585 17.8644 9.49385 17.7131 10.2728C17.5386 11.1688 17.2564 11.9491 16.8753 12.5877C16.539 13.1597 16.0869 13.6551 15.548 14.0422C15.0418 14.4015 14.4404 14.6742 13.7604 14.8488C13.1015 15.0204 12.3502 15.1069 11.5262 15.1069H10.9953C10.6156 15.1069 10.2469 15.2437 9.95746 15.4888C9.66842 15.7365 9.47667 16.0787 9.41637 16.4546L9.37637 16.672L8.70437 20.9302L8.67383 21.0866C8.66583 21.136 8.65201 21.1608 8.63165 21.1775C8.61192 21.1936 8.58731 21.2026 8.56183 21.2029H5.28401Z" fill="#253B80"/>
<path d="M16.7625 5.57605C16.7421 5.70623 16.7188 5.83932 16.6926 5.97605C15.793 10.595 12.7152 12.1906 8.78427 12.1906H6.78281C6.30208 12.1906 5.89699 12.5397 5.82208 13.0139L4.79736 19.5128L4.50717 21.355C4.49561 21.428 4.50003 21.5027 4.52011 21.5739C4.54019 21.6452 4.57547 21.7112 4.6235 21.7674C4.67154 21.8237 4.7312 21.8689 4.79838 21.8999C4.86555 21.9309 4.93865 21.9469 5.01263 21.947H8.56245C8.98281 21.947 9.3399 21.6415 9.40609 21.227L9.44099 21.0466L10.1094 16.8051L10.1523 16.5724C10.2177 16.1564 10.5755 15.851 10.9959 15.851H11.5268C14.9661 15.851 17.6585 14.4546 18.4454 10.4139C18.7741 8.72587 18.6039 7.31641 17.7341 6.32514C17.4584 6.0185 17.1291 5.76465 16.7625 5.57605Z" fill="#179BD7"/>
<path d="M15.8209 5.20073C15.5336 5.11763 15.2414 5.05278 14.946 5.00655C14.3622 4.91683 13.7722 4.87379 13.1816 4.87782H7.83469C7.63121 4.87767 7.43438 4.95031 7.27978 5.08263C7.12519 5.21495 7.02304 5.3982 6.99178 5.59928L5.85433 12.8036L5.8216 13.0138C5.85704 12.7845 5.97339 12.5754 6.1496 12.4244C6.32582 12.2734 6.55026 12.1904 6.78233 12.1905H8.78378C12.7147 12.1905 15.7925 10.5942 16.6921 5.976C16.7191 5.83928 16.7416 5.70619 16.762 5.576C16.5246 5.45152 16.2772 5.34715 16.0223 5.264C15.9555 5.24184 15.8884 5.22074 15.8209 5.20073Z" fill="#222D65"/>
<path d="M6.99202 5.59927C7.02301 5.39814 7.12511 5.2148 7.27978 5.08255C7.43445 4.9503 7.63143 4.87791 7.83493 4.87855H13.1818C13.8153 4.87855 14.4066 4.92 14.9462 5.00727C15.3114 5.06466 15.6715 5.1505 16.0233 5.264C16.2887 5.352 16.5353 5.456 16.7629 5.576C17.0306 3.86909 16.7607 2.70691 15.8378 1.65455C14.8204 0.496 12.984 0 10.6342 0H3.81239C3.33239 0 2.92293 0.349091 2.84875 0.824L0.00729861 18.8349C-0.0059364 18.9185 -0.000900931 19.004 0.0220586 19.0855C0.0450182 19.167 0.085357 19.2426 0.1403 19.307C0.195243 19.3714 0.263487 19.4231 0.340337 19.4586C0.417187 19.4942 0.500819 19.5126 0.58548 19.5127H4.79712L5.85457 12.8036L6.99202 5.59927Z" fill="#253B80"/>
</g>
<defs>
<clipPath id="clip0">
<rect width="18.9091" height="24" fill="white"/>
</clipPath>
</defs>
</svg>
