<svg width="480" height="720" viewBox="0 0 480 720" fill="none" xmlns="http://www.w3.org/2000/svg">
<g opacity="0.5">
<g clip-path="url(#clip0)">
<path d="M564.419 -189.942C507.294 -126.847 584.531 -32.3775 497.967 63.2327C411.403 158.843 274.235 23.2003 164.891 143.971C55.5467 264.742 139.065 350.61 74.9301 421.446C10.7957 492.283 -11.3885 446.04 -74.822 516.102C-138.256 586.165 -53.911 700.25 -101.223 752.507" stroke="#EA4879"/>
<path d="M569.469 -169.532C512.344 -106.437 589.581 -11.9673 503.017 83.6429C416.453 179.253 279.284 43.6105 169.94 164.381C60.5965 285.152 144.114 371.02 79.9799 441.857C15.8455 512.693 -6.33869 466.45 -69.7722 536.512C-133.206 606.575 -48.8611 720.661 -96.1734 772.917" stroke="#EA4879"/>
<path d="M574.519 -149.122C517.394 -86.0274 594.631 8.4426 508.067 104.053C421.503 199.663 284.334 64.0204 174.99 184.791C65.6463 305.562 149.164 391.43 85.0298 462.267C20.8953 533.103 -1.28889 486.86 -64.7224 556.922C-128.156 626.985 -43.8113 741.07 -91.1236 793.327" stroke="#EA4879"/>
<path d="M579.568 -128.713C522.443 -65.6177 599.68 28.8523 513.116 124.462C426.552 220.073 289.383 84.4301 180.039 205.201C70.6955 325.972 154.213 411.84 90.079 482.676C25.9446 553.513 3.76034 507.269 -59.6732 577.332C-123.107 647.395 -38.7621 761.48 -86.0744 813.737" stroke="#EA4879"/>
<path d="M584.618 -108.303C527.493 -45.2075 604.73 49.2624 518.166 144.873C431.602 240.483 294.433 104.84 185.089 225.611C75.7454 346.382 159.263 432.25 95.1288 503.086C30.9944 573.923 8.81021 527.68 -54.6233 597.742C-118.057 667.805 -33.7122 781.89 -81.0245 834.147" stroke="#EA4879"/>
<path d="M589.248 -89.5909C532.122 -26.4959 609.359 67.9741 522.795 163.584C436.231 259.195 299.063 123.552 189.719 244.323C80.3748 365.093 163.893 450.961 99.7582 521.798C35.6238 592.635 13.4396 546.391 -49.9939 616.454C-113.427 686.516 -29.0828 800.602 -76.3951 852.858" stroke="#EA4879"/>
<path d="M594.297 -69.1807C537.172 -6.08571 614.409 88.3843 527.845 183.994C441.281 279.605 304.112 143.962 194.769 264.733C85.4246 385.504 168.942 471.372 104.808 542.208C40.6737 613.045 18.4894 566.801 -44.9441 636.864C-108.378 706.927 -24.033 821.012 -71.3453 873.269" stroke="#EA4879"/>
<path d="M599.347 -48.7706C542.222 14.3244 619.459 108.794 532.895 204.405C446.331 300.015 309.162 164.372 199.818 285.143C90.4744 405.914 173.992 491.782 109.858 562.618C45.7235 633.455 23.5392 587.212 -39.8943 657.274C-103.328 727.337 -18.9832 841.422 -66.2955 893.679" stroke="#EA4879"/>
<path d="M604.397 -28.3611C547.272 34.7339 624.509 129.204 537.945 224.814C451.381 320.424 314.212 184.782 204.868 305.552C95.5242 426.323 179.042 512.191 114.908 583.028C50.7733 653.865 28.589 607.621 -34.8444 677.684C-98.2779 747.746 -13.9334 861.832 -61.2457 914.088" stroke="#EA4879"/>
<path d="M609.447 -7.95097C552.322 55.144 629.558 149.614 542.994 245.224C456.43 340.834 319.262 205.192 209.918 325.963C100.574 446.733 184.092 532.601 119.957 603.438C55.823 674.275 33.6388 628.031 -29.7947 698.094C-93.2282 768.156 -8.88362 882.242 -56.1959 934.498" stroke="#EA4879"/>
</g>
</g>
<defs>
<clipPath id="clip0">
<rect width="480" height="720" fill="white"/>
</clipPath>
</defs>
</svg>
