<svg width="1440" height="690" viewBox="0 0 1440 690" fill="none" xmlns="http://www.w3.org/2000/svg">
<rect width="1440" height="690" fill="#F6F6FA"/>
<g style="mix-blend-mode:multiply">
<path d="M1365.34 -30C1365.34 332.968 1076.62 627.179 720.5 627.179C364.384 627.179 75.6621 332.968 75.6621 -30C75.6621 -392.968 364.384 -687.179 720.5 -687.179C1076.62 -687.179 1365.34 -392.968 1365.34 -30Z" stroke="#F2F2F2" stroke-width="2"/>
</g>
<g style="mix-blend-mode:multiply">
<path d="M1395.67 -30C1395.67 350.039 1093.37 658.09 720.5 658.09C347.632 658.09 45.3311 350.039 45.3311 -30C45.3311 -410.039 347.632 -718.09 720.5 -718.09C1093.37 -718.09 1395.67 -410.039 1395.67 -30Z" stroke="#F2F2F2" stroke-width="2"/>
</g>
<g style="mix-blend-mode:multiply">
<path d="M1426 -30C1426 367.111 1110.12 689 720.5 689C330.881 689 15 367.111 15 -30C15 -427.111 330.881 -749 720.5 -749C1110.12 -749 1426 -427.111 1426 -30Z" stroke="#F2F2F2" stroke-width="2"/>
</g>
</svg>
