<svg width="22" height="18" viewBox="0 0 22 18" fill="none" xmlns="http://www.w3.org/2000/svg">
<path d="M21.6501 2.08146C21.1613 2.29339 20.6539 2.46058 20.1332 2.58162C20.7069 2.04858 21.1383 1.38185 21.3816 0.63767C21.4511 0.425218 21.2151 0.241506 21.0189 0.355258C20.2946 0.775336 19.5143 1.09047 18.6998 1.29202C18.6526 1.30371 18.6038 1.30964 18.5549 1.30964C18.4065 1.30964 18.2623 1.25578 18.1489 1.15802C17.2823 0.411268 16.1677 0 15.0106 0C14.5099 0 14.0043 0.0763065 13.508 0.226822C11.9701 0.693209 10.7834 1.93357 10.4111 3.46389C10.2714 4.0379 10.2336 4.61242 10.2986 5.17148C10.3061 5.23572 10.275 5.28056 10.2559 5.30159C10.2223 5.33846 10.1746 5.3596 10.1251 5.3596C10.1195 5.3596 10.1139 5.35934 10.1082 5.35881C6.74178 5.05301 3.70606 3.46725 1.56026 0.893703C1.45084 0.762435 1.24101 0.778536 1.15379 0.924803C0.733592 1.62965 0.511529 2.43583 0.511529 3.25616C0.511529 4.51336 1.02812 5.69813 1.92543 6.56183C1.54809 6.47435 1.18287 6.33658 0.843604 6.15235C0.679471 6.06319 0.477523 6.17778 0.475216 6.36134C0.451723 8.22898 1.57008 9.89084 3.24542 10.6392C3.21168 10.64 3.17794 10.6403 3.14415 10.6403C2.87859 10.6403 2.6097 10.6152 2.34505 10.5658C2.16021 10.5313 2.00493 10.7027 2.06232 10.8779C2.6061 12.5379 4.06785 13.7614 5.81711 14.0392C4.36533 14.992 2.67471 15.4947 0.915104 15.4947L0.366545 15.4944C0.197531 15.4944 0.054585 15.6021 0.0115135 15.7621C-0.0309144 15.9198 0.0472365 16.0861 0.191363 16.1681C2.17415 17.2963 4.43581 17.8926 6.73282 17.8926C8.74345 17.8926 10.6242 17.5024 12.3229 16.7331C13.8802 16.0278 15.2564 15.0195 16.4131 13.7364C17.4907 12.5411 18.3334 11.1612 18.9176 9.63517C19.4745 8.18052 19.7689 6.62838 19.7689 5.14652V5.07593C19.7689 4.83799 19.8789 4.6141 20.0709 4.4617C20.7996 3.88324 21.4342 3.2023 21.9569 2.43782C22.0949 2.23596 21.8772 1.98297 21.6501 2.08146Z" fill="white"/>
</svg>
